# xmcd CD database file
#
# Track frame offsets:
#	150
#	20107
#	40742
#	53057
#
# Disc length: 831 seconds
#
# Revision: 0
# Processed by: cddbd v1.5.1PL0 Copyright (c) Steve Scherf et al.
# Submitted via: CDex 1.51
#
DISCID=2c033d04
DTITLE=皆谷尚美 - Blue Sky
DYEAR=2000
DGENRE=JPop
TTITLE0=Blue Sky
TTITLE1=つきあかり
TTITLE2=おやすみのうた
TTITLE3=Memories of Wind
EXTD=YEAR: 2000
EXTT0=
EXTT1=
EXTT2=
EXTT3=
PLAYORDER=
